<?xml version="1.0" encoding="iso-8859-1"?>
<!-- Generator: Adobe Illustrator 19.0.0, SVG Export Plug-In . SVG Version: 6.00 Build 0)  -->
<svg version="1.1" id="Layer_1" xmlns="http://www.w3.org/2000/svg" xmlns:xlink="http://www.w3.org/1999/xlink" x="0px" y="0px"
	 viewBox="0 0 512 512" style="enable-background:new 0 0 512 512;" xml:space="preserve">
<path style="fill:#4FC0E8;" d="M512,256.006C512,397.402,397.394,512.004,256.004,512C114.606,512.004,0,397.402,0,256.006
	C-0.007,114.61,114.606,0,256.004,0C397.394,0,512,114.614,512,256.006z"/>
<path style="fill:#3DAED9;" d="M473.781,390.562c-0.11-0.106-0.206-0.226-0.323-0.323c-0.547-0.515-53.565-53.667-54.142-54.143
	c-0.548-0.514-1.017-1.116-1.593-1.594c-0.547-0.513-246.242-246.344-246.816-246.818c-6.059-5.699-13.854-9.286-22.261-9.809
	c-10.294-0.689-20.354,3.175-27.641,10.478L90.627,118.8c-13.011,13.038-44.549,66.527,95.883,207.261
	c0.263,0.265,166.119,166.103,166.382,166.366c0.133,0.133,0.26,0.264,0.387,0.395C403.415,472.208,445.552,436.159,473.781,390.562
	z"/>
<path style="fill:#F6F6F6;" d="M434.205,364.028c-0.642-10.289-5.666-19.824-13.785-26.155l-47.558-37.095
	c-13.095-10.224-31.334-10.151-44.35,0.16l-10.576,8.374c-8.374,6.642-20.404,5.938-27.959-1.638l-85.068-85.249
	c-7.566-7.584-8.27-19.65-1.635-28.068l8.356-10.594c10.274-13.044,10.34-31.302,0.16-44.404l-37.016-47.661
	c-6.323-8.143-15.846-13.182-26.129-13.821c-10.292-0.689-20.353,3.175-27.641,10.478l-30.378,30.447
	c-13.012,13.037-44.549,66.527,95.883,207.261c89.19,89.382,143.492,108.141,173.341,108.141c17.776,0,28.043-6.555,33.529-12.051
	l30.378-30.439C431.036,384.41,434.843,374.324,434.205,364.028z M413.243,381.227l-30.378,30.439
	c-3.499,3.502-10.333,7.686-23.014,7.686c-22.138,0-72.723-13.479-162.827-103.775C93.038,211.367,80.382,150.097,101.141,129.286
	l30.378-30.447c3.963-3.966,9.332-6.185,14.9-6.185c0.435,0,0.87,0.015,1.306,0.044c6.026,0.37,11.609,3.328,15.322,8.107
	l37.02,47.661c5.982,7.7,5.942,18.439-0.098,26.103l-8.353,10.594c-11.286,14.321-10.09,34.848,2.781,47.747l85.068,85.249
	c12.881,12.914,33.383,14.11,47.69,2.799l10.579-8.374c7.625-6.054,18.316-6.083,25.998-0.101l47.555,37.095
	c4.771,3.719,7.723,9.325,8.099,15.372C419.761,371.003,417.52,376.934,413.243,381.227z"/>
<g>
</g>
<g>
</g>
<g>
</g>
<g>
</g>
<g>
</g>
<g>
</g>
<g>
</g>
<g>
</g>
<g>
</g>
<g>
</g>
<g>
</g>
<g>
</g>
<g>
</g>
<g>
</g>
<g>
</g>
</svg>
